<svg xmlns="http://www.w3.org/2000/svg" xmlns:xlink="http://www.w3.org/1999/xlink" width="30" height="30" viewBox="0 0 30 30"><defs><style>.a{fill:none;}.b{fill:url(#a);}</style><linearGradient id="a" x1="0.928" y1="0.5" x2="0.087" y2="0.5" gradientUnits="objectBoundingBox"><stop offset="0" stop-color="#16c7d7"/><stop offset="1" stop-color="#e9b405"/></linearGradient></defs><g transform="translate(0 0.186)"><rect class="a" width="30" height="30" transform="translate(0 -0.186)"/><g transform="translate(2.513 2.516)"><path class="b" d="M18.466,29.161h-.44l-4.4-.944a1.95,1.95,0,0,1-1.447-1.887V18.468L4.627,11.423A1.635,1.635,0,0,1,4,10.039V5.887A1.887,1.887,0,0,1,5.886,4H27.273A1.887,1.887,0,0,1,29.16,5.887v4.781a1.761,1.761,0,0,1-.692,1.447l-8.114,6.416v8.743a1.913,1.913,0,0,1-1.887,1.887Zm-3.774-3.4,3.145.755V17.335l8.806-6.982V6.516H6.515V9.787L14.692,17.4Z" transform="translate(-3.996 -4)"/></g></g></svg>