<svg xmlns="http://www.w3.org/2000/svg" xmlns:xlink="http://www.w3.org/1999/xlink" version="1.1" id="Layer_1" x="0px" y="0px" viewBox="0 0 200 35" style="enable-background:new 0 0 200 35;" xml:space="preserve">
<style type="text/css">
	.st0{fill:#FFFFFF;}
</style>
	<g>
	<path class="st0" d="M154.3,6.9c0,1,0.8,1.8,1.8,1.7c1,0,1.7-0.8,1.7-1.8c0-1-0.8-1.7-1.7-1.7C155,5.2,154.3,6,154.3,6.9z"/>
		<path class="st0" d="M193.9,11.1c0,0.3,0,0.5,0,0.7c0,2.2,0,4.3,0,6.5c0,0.6-0.1,1.2-0.2,1.7c-0.7,2.2-2.9,3.6-5.1,3.2   c-2.4-0.4-4-2.2-4.1-4.6c0-2.3,0-4.5,0-6.8c0-0.2,0-0.5,0-0.8c-0.9,0-1.7,0-2.5,0c-0.4,0-0.5,0.1-0.5,0.5c0,1.1,0,2.2,0,3.3   c0,0.3-0.2,0.7-0.4,0.9c-2.3,2.3-4.6,4.6-6.9,6.9c-0.6,0.6-1.3,0.8-2.1,0.5c-0.7-0.3-1.1-0.9-1.1-1.9c0-2.2,0-4.4,0-6.7   c0-0.2,0-0.4,0-0.6c0.3,0,0.5,0,0.7,0c1.4,0,2.7,0,4.1,0c0.2,0,0.5-0.2,0.5-0.3c0-0.9,0-1.7,0-2.7c-1.8,0-3.6,0-5.4,0   c0-1.2,0-2.3,0-3.4c-1,0-1.9,0-2.9,0c0,0.3,0,0.5,0,0.7c0,2.2,0,4.3,0,6.5c0,0.3-0.2,0.7-0.4,1c-2.3,2.3-4.5,4.5-6.8,6.8   c-0.6,0.6-1.3,1-2.2,0.6c-0.8-0.4-1.1-1.1-1.1-1.9c0-3.1,0-6.2,0-9.4c0-0.2,0-0.5,0-0.8c-0.9,0-1.7,0-2.4,0c-0.5,0-0.6,0.2-0.5,0.6   c0,1.1,0,2.1,0,3.2c0,0.2,0,0.4-0.1,0.5c-0.7,0.7-1.4,1.4-2.2,2.1c0-0.2-0.1-0.3-0.1-0.4c-0.7-2.9-2.4-4.9-5.2-5.8   c-2.9-0.9-5.5-0.3-7.7,1.7c-0.6,0.6-1.2,1.2-1.8,1.8c-2.5,2.5-5,5-7.4,7.5c-1.4,1.4-3.5,1.3-4.8-0.1c-1.2-1.3-1.1-3.2,0.2-4.6   c2-2,4-4,6-6c0.1-0.1,0.3-0.3,0.5-0.6c-0.4,0-0.6,0-0.8,0c-3.5,0-7.1,0-10.6,0c-0.5,0-0.8,0.1-1.1,0.5c-3.4,3.5-6.9,6.9-10.3,10.4   c-0.8,0.8-1.7,1.3-2.7,1.4c-1,0.2-1.6,0-2.7-0.5c0,0,5.4-5.5,8-8c0.4-0.4,0.4-0.6,0.1-1c-2.8-3.5-8-3.9-11.3-0.8   c-1.2,1.1-2.3,2.3-3.4,3.4c-0.4,0.4-0.8,0.8-1.2,1.3c-0.6-2.9-2.1-5-4.7-6.1c-2.7-1.1-5.2-0.7-7.7,1c0-0.3,0-0.5,0-0.8c0-2,0-4,0-6   c0-0.5-0.2-0.6-0.6-0.6c-0.6,0-1.1,0-1.7,0c-0.6,0-0.7,0.2-0.7,0.7c0,3,0,6,0,9.1c0,0.3-0.1,0.7-0.3,0.9c-2.3,2.3-4.7,4.7-7,7   c-0.6,0.6-1.2,0.8-2,0.5c-0.8-0.3-1.1-1-1.1-1.8c0-2.2,0-4.5,0-6.7c0-0.5,0.1-0.6,0.6-0.6c0.9,0,1.8,0,2.6,0c0.7,0,1.4,0,2.1,0   c0,0,0,0,0,0c0-1,0-1.9,0-2.9c0,0,0,0,0,0c-1.8,0-3.6,0-5.4,0c0-1.2,0-2.3,0-3.4c-1,0-1.9,0-2.9,0c0,0.3,0,0.5,0,0.7   c0,2.2,0,4.4,0,6.5c0,0.3-0.1,0.6-0.3,0.8c-0.6,0.6-1.2,1.2-1.8,1.8c-1.5,1.5-2.9,2.9-4.4,4.4c-0.4,0.4-1,0.8-1.6,1   c-1.3,0.5-2.5,0.5-4-0.2c2.9-2.9,5.7-5.7,8.6-8.5c-0.2-0.2-0.3-0.5-0.5-0.7c-0.8-0.9-1.7-1.6-2.8-2.1c-0.9-0.4-1.9-0.6-3-0.6   c-2.9,0-5.4,1.6-6.7,4c-0.2,0.5-0.5,1-0.7,1.6c-0.2,0.7-0.3,1.3-0.3,2.1c0,3.4,2.2,6.2,5.2,7.3c0.1,0,0.2,0.1,0.3,0.1   c0.8,0.2,1.6,0.3,2.4,0.3c0,0,0,0,0,0c2-0.1,3.8-0.9,5.3-2.5c0.2-0.2,0.4-0.4,0.6-0.6c1-1,2-2,3-3c0.1-0.1,0.3-0.3,0.6-0.5   c0,0.7,0,1.2,0,1.8c0,2.1,1,3.6,2.9,4.5c1.8,0.8,3.8,0.4,5.3-1.1c1.6-1.6,5.2-5.1,5.2-5.1v6.4h3v0c0,0,0,0,0,0c0-0.3,0-0.6,0-0.8   c0-2.2,0-4.5,0-6.7c0-3.3,3.3-5.5,6.4-4.4c1.9,0.7,3.1,2.4,3.1,4.5c0,0.9,0,1.9,0,2.8v4.6h0.3c0.4,0,0.8,0,1.1,0c0.5,0,1,0,1.6,0   c0,0,0,0,0,0h0v-3.8c0.2-0.8,0.7-1.4,1.4-2c0.3-0.2,0.5-0.4,0.8-0.7c0.2,1.7,0.9,3.1,2,4.2c3,3.2,8,3.3,11.1,0.2   c3.2-3.2,6.4-6.4,9.6-9.6c0.2-0.2,0.4-0.4,0.6-0.4c1.1,0,2.2,0,3.5,0c-0.6,0.6-1.1,1.1-1.6,1.6c-1.1,1.1-1.7,2.4-1.8,4   c-0.2,2.6,1.3,5,3.7,6.1c2.4,1.1,5.1,0.6,7-1.3c0.5-0.5,1-1.1,1.6-1.6l0,0l3.2-3.2c0,0,0,0,0.1,0v6.5h3v-0.2c0,0,0,0,0,0   c0-0.3,0-0.5,0-0.8c0-2.3,0-4.6,0-6.8c0.1-3.5,3.8-5.7,6.9-4.1c1.7,0.9,2.6,2.4,2.6,4.3c0,2.3,0,4.5,0,6.8c0,0.1,0,0.2,0,0.3v0.4h3   v-0.6c0-0.1,0-0.1,0-0.2c0,0,0-0.1,0-0.1v-3.4c0-0.1,0-0.1,0.1-0.2c0.7-0.7,1.4-1.3,2.1-2c0,0.6,0,1.2,0,1.8c0.1,2.1,1.1,3.6,3,4.4   c1.9,0.7,3.7,0.3,5.1-1.1c1.6-1.6,3.2-3.2,4.8-4.8c0.1-0.1,0.3-0.2,0.5-0.4c0,0.7,0,1.2,0,1.8c0,2.1,1.1,3.7,3,4.5   c1.8,0.7,3.8,0.3,5.2-1.1c1.6-1.6,3.2-3.2,4.8-4.7c0.1-0.1,0.3-0.3,0.5-0.5c0.5,2.9,2.1,5,4.7,6.1c2.7,1.1,5.2,0.7,7.6-0.9   c0.1,2-1.6,4.1-3.7,4.4c-2.3,0.4-4.3-0.6-5.4-2.7c-0.1-0.2-0.3-0.4-0.4-0.4c-0.9,0-1.8,0-2.7,0c0,0.2,0,0.3,0.1,0.4   c0.8,3.3,4,5.8,7.5,5.8c3.5,0,6.8-2.5,7.5-6c0.1-0.7,0.2-1.4,0.2-2.1v-6.8c0-0.9,0-1.7,0-2.5c0-1.2,0-2.5,0-3.7   C195.8,11.1,194.9,11.1,193.9,11.1z M52.8,20.6c-0.9-1.3-0.7-3.8,0.8-5.3c1.4-1.5,3.8-1.9,5.3-1C56.9,16.4,54.9,18.5,52.8,20.6z    M102.2,15.4c1.4-1.5,3.8-2,5.5-1c-2.1,2.1-4.1,4.2-6.2,6.3C100.5,19.3,100.9,16.9,102.2,15.4z"/>
</g>
	<g>
	<g>
		<path class="st0" d="M37.2,10.9c-3.6-3.6-9.6-3.6-13.2,0l-1.4,1.4l1.3,1.3l1.4-1.4c2.9-2.9,7.7-2.9,10.6,0    c1.4,1.4,2.2,3.3,2.2,5.3c0,2-0.8,3.9-2.2,5.3S32.6,25,30.6,25c-2,0-3.9-0.8-5.3-2.2l-1.4-1.4l-1.3,1.3l1.4,1.4    c1.8,1.8,4.2,2.7,6.6,2.7c2.4,0,4.8-0.9,6.6-2.7c1.8-1.8,2.7-4.1,2.7-6.6C39.9,15,39,12.7,37.2,10.9z"/>
	</g>
		<path class="st0" d="M23.9,18.8l4-4c0.7-0.7,1.7-1.1,2.7-1.1c1,0,2,0.4,2.7,1.1c0.7,0.7,1.1,1.7,1.1,2.7s-0.4,2-1.1,2.7   c-0.7,0.7-1.7,1.1-2.7,1.1c-1,0-2-0.4-2.7-1.1l-1.4-1.4l-1.3,1.3l1.4,1.4c1.1,1.1,2.5,1.7,4,1.7c1.5,0,2.9-0.6,4-1.7   c1.1-1.1,1.7-2.5,1.7-4s-0.6-2.9-1.7-4c-1.1-1.1-2.5-1.7-4-1.7c-1.5,0-2.9,0.6-4,1.7L26,14.1l-3.3,3.4l-3.9,3.9l0,0l-0.4,0.4   l-0.8,0.8l0,0l-0.2,0.2c-2.9,2.9-7.7,2.9-10.6,0c-1.4-1.4-2.2-3.3-2.2-5.3c0-2,0.8-3.9,2.2-5.3C8.1,10.8,10,10,12,10   c2,0,3.9,0.8,5.3,2.2l2.7,2.7L14.9,20l0,0l-0.2,0.2C14,20.9,13,21.3,12,21.3c-0.7,0-1.3-0.2-1.8-0.5l5.5-5.5l1.1-1.1L16,13.5   c-0.2-0.2-0.4-0.4-0.7-0.6c-1-0.7-2.1-1.1-3.3-1.1c-1.5,0-2.9,0.6-4,1.7c-1.1,1.1-1.7,2.5-1.7,4c0,1.5,0.6,2.9,1.7,4   c1.1,1.1,2.5,1.7,4,1.7c1.5,0,2.9-0.6,4-1.7l2.6-2.6l0,0l1.5-1.5l1.3-1.3l1.2-1.2l0,0l0.1-0.1l-4-4c-3.6-3.6-9.6-3.6-13.2,0   c-1.8,1.8-2.7,4.1-2.7,6.6c0,2.5,1,4.8,2.7,6.6c1.8,1.8,4.2,2.7,6.6,2.7c2.4,0,4.8-0.9,6.6-2.7l1.4-1.4l0,0L23.9,18.8z M8.2,17.5   c0-1,0.4-2,1.1-2.7c0.7-0.7,1.7-1.1,2.7-1.1c0.7,0,1.4,0.2,2,0.6l-5.2,5.2C8.4,18.9,8.2,18.2,8.2,17.5z"/>
</g>
</svg>