<svg xmlns="http://www.w3.org/2000/svg" xmlns:xlink="http://www.w3.org/1999/xlink" width="26" height="26" viewBox="0 0 26 26"><defs><style>.a{fill:none;}.b{fill:url(#a);}</style><linearGradient id="a" x1="0.5" x2="0.5" y2="1" gradientUnits="objectBoundingBox"><stop offset="0" stop-color="#16c7d7"/><stop offset="1" stop-color="#e9b405"/></linearGradient></defs><g transform="translate(26) rotate(90)"><rect class="a" width="26" height="26"/><g transform="translate(2.114 2.114)"><path class="b" d="M6.114,5.163V15.785A3.277,3.277,0,0,0,4,18.8a3.171,3.171,0,0,0,2.114,2.959v2.22a1.11,1.11,0,0,0,1.057,1.163,1.11,1.11,0,0,0,1.057-1.163v-2.22A3.171,3.171,0,0,0,10.342,18.8a3.277,3.277,0,0,0-2.114-3.012V5.163A1.11,1.11,0,0,0,7.171,4,1.11,1.11,0,0,0,6.114,5.163ZM8.228,18.8A1.057,1.057,0,1,1,7.171,17.74,1.057,1.057,0,0,1,8.228,18.8Z" transform="translate(-4 -4)"/><path class="b" d="M20.114,5.257V7.424A3.277,3.277,0,0,0,18,10.436,3.171,3.171,0,0,0,20.114,13.4V24.071a1.057,1.057,0,0,0,2.114,0V13.4a3.171,3.171,0,0,0,2.114-2.959,3.277,3.277,0,0,0-2.114-3.012V5.257a1.057,1.057,0,0,0-2.114,0Zm2.114,5.179a1.057,1.057,0,1,1-1.057-1.057A1.057,1.057,0,0,1,22.228,10.436Z" transform="translate(-10.601 -4.094)"/><path class="b" d="M34.114,5.257v9.037A3.277,3.277,0,0,0,32,17.306a3.171,3.171,0,0,0,2.114,2.959v3.805a1.057,1.057,0,0,0,2.114,0V20.266a3.171,3.171,0,0,0,2.114-2.959,3.277,3.277,0,0,0-2.114-3.012V5.257a1.057,1.057,0,0,0-2.114,0Zm2.114,12.049a1.057,1.057,0,1,1-1.057-1.057A1.057,1.057,0,0,1,36.228,17.306Z" transform="translate(-17.203 -4.094)"/></g></g></svg>