<svg xmlns="http://www.w3.org/2000/svg" width="33" height="28" viewBox="0 0 22 22" fill="none">
    <path fill-rule="evenodd" clip-rule="evenodd" d="M5.5 5C4.67157 5 4 5.67157 4 6.5C4 7.32843 4.67157 8 5.5 8H15.5V6C15.5 5.44772 15.0523 5 14.5 5H5.5ZM17.5 8V6C17.5 4.34315 16.1569 3 14.5 3H5.5C3.567 3 2 4.567 2 6.5V18C2 19.6569 3.34315 21 5 21H19C20.6569 21 22 19.6569 22 18V11C22 9.34315 20.6569 8 19 8H17.5ZM4 9.66318V18C4 18.5523 4.44772 19 5 19H19C19.5523 19 20 18.5523 20 18V11C20 10.4477 19.5523 10 19 10H5.5C4.9632 10 4.45463 9.87915 4 9.66318Z" fill="url(#paint0_linear)"/>
    <path d="M18 14.5C18 15.3284 17.3284 16 16.5 16C15.6716 16 15 15.3284 15 14.5C15 13.6716 15.6716 13 16.5 13C17.3284 13 18 13.6716 18 14.5Z" fill="url(#paint1_linear)"/>
    <defs>
        <linearGradient id="paint0_linear" x1="2" y1="21" x2="21.6543" y2="21" gradientUnits="userSpaceOnUse">
            <stop stop-color="#EEB200"/>
            <stop offset="0.480847" stop-color="#50D98B"/>
            <stop offset="1" stop-color="#00C0F5"/>
        </linearGradient>
        <linearGradient id="paint1_linear" x1="2" y1="21" x2="21.6543" y2="21" gradientUnits="userSpaceOnUse">
            <stop stop-color="#EEB200"/>
            <stop offset="0.480847" stop-color="#50D98B"/>
            <stop offset="1" stop-color="#00C0F5"/>
        </linearGradient>
    </defs>
</svg>